<svg width="96" height="96" viewBox="0 0 96 96" fill="none" xmlns="http://www.w3.org/2000/svg">
<g filter="url(#filter0_ii_28907_19801)">
<path d="M12.4453 70.2222H8L8 56.8899H12.4453L12.4453 70.2222ZM25.7773 83.5546H83.5547V56.8899L8 56.8899L8.02344 56.4328C8.25186 54.1925 10.1447 52.4444 12.4453 52.4444L83.5547 52.4444C85.8553 52.4444 87.7481 54.1925 87.9766 56.4328L88 56.8899V83.5546C88 86.0092 86.0093 88 83.5547 88H25.7773L24.8633 87.9766C15.4699 87.5005 8 79.7341 8 70.2222H12.4453C12.4453 77.586 18.4137 83.5543 25.7773 83.5546Z" fill="url(#paint0_linear_28907_19801)"/>
<path fill-rule="evenodd" clip-rule="evenodd" d="M39.1111 8C41.5657 8 43.5556 9.98985 43.5556 12.4444V70.2222C43.5555 80.0406 35.5957 88 25.7773 88C15.959 88 8 80.0406 8 70.2222L8 12.4444C8 9.98985 9.98985 8 12.4444 8H39.1111ZM25.7778 59.1111C19.6413 59.1111 14.6667 64.0857 14.6667 70.2222C14.6667 76.3587 19.6413 81.3333 25.7778 81.3333C31.9143 81.3333 36.8889 76.3587 36.8889 70.2222C36.8889 64.0857 31.9143 59.1111 25.7778 59.1111Z" fill="url(#paint1_linear_28907_19801)"/>
</g>
<defs>
<filter id="filter0_ii_28907_19801" x="0" y="-4" width="96" height="104" filterUnits="userSpaceOnUse" color-interpolation-filters="sRGB">
<feFlood flood-opacity="0" result="BackgroundImageFix"/>
<feBlend mode="normal" in="SourceGraphic" in2="BackgroundImageFix" result="shape"/>
<feColorMatrix in="SourceAlpha" type="matrix" values="0 0 0 0 0 0 0 0 0 0 0 0 0 0 0 0 0 0 127 0" result="hardAlpha"/>
<feOffset dy="4"/>
<feGaussianBlur stdDeviation="2"/>
<feComposite in2="hardAlpha" operator="arithmetic" k2="-1" k3="1"/>
<feColorMatrix type="matrix" values="0 0 0 0 0 0 0 0 0 0 0 0 0 0 0 0 0 0 0.1 0"/>
<feBlend mode="normal" in2="shape" result="effect1_innerShadow_28907_19801"/>
<feColorMatrix in="SourceAlpha" type="matrix" values="0 0 0 0 0 0 0 0 0 0 0 0 0 0 0 0 0 0 127 0" result="hardAlpha"/>
<feOffset dy="-4"/>
<feGaussianBlur stdDeviation="2"/>
<feComposite in2="hardAlpha" operator="arithmetic" k2="-1" k3="1"/>
<feColorMatrix type="matrix" values="0 0 0 0 1 0 0 0 0 1 0 0 0 0 1 0 0 0 0.1 0"/>
<feBlend mode="normal" in2="effect1_innerShadow_28907_19801" result="effect2_innerShadow_28907_19801"/>
</filter>
<linearGradient id="paint0_linear_28907_19801" x1="47.7846" y1="88.0003" x2="47.5269" y2="8.00187" gradientUnits="userSpaceOnUse">
<stop stop-color="#009DB9"/>
<stop offset="1" stop-color="#33B7C1"/>
</linearGradient>
<linearGradient id="paint1_linear_28907_19801" x1="47.7846" y1="88.0003" x2="47.5269" y2="8.00187" gradientUnits="userSpaceOnUse">
<stop stop-color="#009DB9"/>
<stop offset="1" stop-color="#33B7C1"/>
</linearGradient>
</defs>
</svg>
